<?xml version="1.0" standalone="no"?><!DOCTYPE svg PUBLIC "-//W3C//DTD SVG 1.1//EN" "http://www.w3.org/Graphics/SVG/1.1/DTD/svg11.dtd"><svg t="1680593272950" class="icon" viewBox="0 0 1024 1024" version="1.1" xmlns="http://www.w3.org/2000/svg" p-id="12236" xmlns:xlink="http://www.w3.org/1999/xlink" width="200" height="200"><path d="M972.8 727.68H547.2V520.448c42.816-4.992 131.456-25.536 223.424-107.904 114.88-102.912 140.032-253.12 123.008-282.048-2.816-4.864-11.52-19.584-55.168-24.64-70.272-8.192-182.464 13.568-266.432 101.504-62.08 65.024-77.888 151.552-80 213.824a278.272 278.272 0 0 0-86.72-54.08c-100.544-38.784-182.016 7.168-194.752 35.264-8.192 18.112 3.328 46.272 7.04 54.464 11.968 26.304 43.968 73.984 123.52 97.728 71.616 21.376 122.368 9.984 155.008-6.4v179.584H51.264a25.6 25.6 0 1 0 0 51.2h921.6a25.6 25.6 0 1 0 0-51.2zM355.648 505.536c-74.688-22.272-92.224-67.84-96-83.072 14.08-10.176 61.12-33.024 127.104-7.552 51.968 20.096 85.76 57.088 101.696 78.208-18.944 14.208-60.736 33.92-132.8 12.416z m253.312-262.784c67.776-71.04 152.448-86.784 202.88-86.784 15.616 0 27.968 1.536 35.52 3.328-1.728 31.168-21.056 134.592-110.912 215.104-79.488 71.168-156.032 89.856-192.192 94.72-3.584-46.784-3.264-155.136 64.704-226.368zM742.4 868.48H281.6a25.6 25.6 0 1 0 0 51.2h460.8a25.6 25.6 0 1 0 0-51.2z" p-id="12237" fill="#ebebf5"></path></svg>