<?xml version="1.0" standalone="no"?><!DOCTYPE svg PUBLIC "-//W3C//DTD SVG 1.1//EN" "http://www.w3.org/Graphics/SVG/1.1/DTD/svg11.dtd"><svg t="1680593369584" class="icon" viewBox="0 0 1024 1024" version="1.1" xmlns="http://www.w3.org/2000/svg" p-id="16305" xmlns:xlink="http://www.w3.org/1999/xlink" width="200" height="200"><path d="M446.4 751.2c-34.4 0-68.8-8-100.8-23.2-116-56-164.8-195.2-109.6-311.2 56-116 195.2-164.8 311.2-109.6 56 27.2 98.4 74.4 119.2 132.8 20.8 59.2 16.8 122.4-9.6 178.4-27.2 56-74.4 98.4-132.8 119.2-25.6 9.6-52 13.6-77.6 13.6z m0-434.4c-75.2 0-147.2 42.4-181.6 114.4-23.2 48.8-26.4 103.2-8.8 153.6 17.6 50.4 54.4 91.2 102.4 115.2 48.8 23.2 103.2 26.4 153.6 8.8 50.4-17.6 91.2-54.4 115.2-102.4 23.2-48.8 26.4-103.2 8.8-153.6-17.6-50.4-54.4-91.2-102.4-115.2-28-14.4-57.6-20.8-87.2-20.8z" fill="#3c3c43" p-id="16306"></path><path d="M446.4 679.2c-24 0-48-5.6-69.6-16-39.2-18.4-68-51.2-82.4-92-1.6-4 0.8-8.8 4.8-10.4 4-1.6 8.8 0.8 10.4 4.8 12.8 36.8 39.2 66.4 74.4 83.2 20 9.6 40.8 14.4 63.2 14.4 4.8 0 8 3.2 8 8-0.8 4.8-4.8 8-8.8 8zM949.6 528.8c-10.4 0-20.8-2.4-30.4-7.2-35.2-16.8-49.6-58.4-32.8-93.6 16.8-35.2 58.4-49.6 93.6-32.8 16.8 8 29.6 22.4 36 40 6.4 17.6 4.8 36.8-3.2 53.6-12 25.6-36.8 40-63.2 40z m0-108c-14.4 0-28 8-34.4 21.6-4.8 8.8-4.8 19.2-1.6 28.8 3.2 9.6 10.4 17.6 19.2 21.6 19.2 8.8 41.6 0.8 51.2-17.6 4.8-8.8 4.8-19.2 1.6-28.8-3.2-9.6-10.4-17.6-19.2-21.6-5.6-2.4-11.2-4-16.8-4zM160 468.8c-10.4 0-20.8-2.4-30.4-7.2-16.8-8-29.6-22.4-36-40-6.4-17.6-4.8-36.8 3.2-53.6 16.8-35.2 58.4-49.6 93.6-32.8 16.8 8 29.6 22.4 36 40 6.4 17.6 4.8 36.8-3.2 53.6-8 16.8-22.4 29.6-40 36-7.2 3.2-15.2 4-23.2 4z m0.8-108c-14.4 0-28 8-34.4 21.6-4.8 8.8-4.8 19.2-1.6 28.8 3.2 9.6 10.4 17.6 19.2 21.6 8.8 4.8 19.2 4.8 28.8 1.6 9.6-3.2 17.6-10.4 21.6-19.2 8.8-19.2 0.8-41.6-17.6-51.2-5.6-1.6-11.2-3.2-16-3.2zM399.2 998.4c-17.6 0-35.2-4-51.2-12-59.2-28.8-84-100-56-159.2 28.8-59.2 100-84 159.2-56 59.2 28.8 84 100 56 159.2-20.8 42.4-63.2 68-108 68z m0.8-207.2c-32.8 0-64 18.4-79.2 49.6-20.8 43.2-2.4 96 40.8 116.8 43.2 20.8 96 2.4 116.8-40.8 20.8-43.2 2.4-96-40.8-116.8-12-5.6-25.6-8.8-37.6-8.8zM152 321.6c-21.6 0-44-4.8-64-14.4-35.2-16.8-62.4-47.2-75.2-84-12.8-37.6-11.2-77.6 6.4-112.8C53.6 36 142.4 5.6 216 40.8c73.6 35.2 104.8 124 68.8 197.6-16.8 35.2-47.2 62.4-84 75.2-16 5.6-32.8 8-48.8 8z m0-263.2c-43.2 0-84.8 24-104.8 65.6-12.8 27.2-15.2 59.2-4.8 88 10.4 28.8 31.2 52.8 59.2 66.4 28 13.6 59.2 15.2 88.8 4.8 28.8-10.4 52.8-31.2 66.4-59.2 28-57.6 3.2-127.2-54.4-154.4-16.8-8-33.6-11.2-50.4-11.2zM782.4 671.2c-12.8 0-25.6-3.2-37.6-8.8-20.8-10.4-36.8-27.2-44-49.6-8-21.6-6.4-45.6 4-66.4 10.4-20.8 27.2-36.8 49.6-44 21.6-8 45.6-6.4 66.4 4 20.8 10.4 36.8 27.2 44 49.6 8 21.6 6.4 45.6-4 66.4-10.4 20.8-27.2 36.8-49.6 44-9.6 3.2-19.2 4.8-28.8 4.8z m0-141.6c-6.4 0-12 0.8-18.4 3.2-13.6 4.8-24.8 14.4-31.2 28-6.4 12.8-7.2 28-2.4 41.6 4.8 13.6 14.4 24.8 28 31.2 27.2 12.8 60 1.6 72.8-25.6 6.4-12.8 7.2-28 2.4-41.6-4.8-13.6-14.4-24.8-28-31.2-7.2-3.2-15.2-5.6-23.2-5.6zM796 433.6c-7.2 0-13.6-4.8-15.2-12C733.6 257.6 576 152 406.4 172c-18.4 2.4-37.6 5.6-55.2 11.2-8.8 2.4-17.6-2.4-20-11.2-2.4-8.8 2.4-17.6 11.2-20 20-5.6 40-9.6 60.8-12 185.6-21.6 357.6 92.8 409.6 272.8 2.4 8.8-2.4 17.6-11.2 20-2.4 0.8-4 0.8-5.6 0.8zM204 805.6c-4 0-7.2-1.6-10.4-4-53.6-48-92-109.6-112-178.4C68.8 578.4 64 532 68 486.4c0.8-8.8 8.8-15.2 17.6-14.4 8.8 0.8 15.2 8.8 14.4 17.6-4 40.8 0 83.2 12 124 18.4 63.2 53.6 120 102.4 164 6.4 5.6 7.2 16 1.6 22.4-3.2 4-8 5.6-12 5.6zM593.6 867.2c-6.4 0-12-3.2-14.4-9.6-3.2-8 0-17.6 8-20.8 56.8-25.6 106.4-65.6 143.2-116.8 4.8-7.2 15.2-8.8 22.4-4 7.2 4.8 8.8 15.2 4 22.4-39.2 56-93.6 100-156 128-2.4 0-4.8 0.8-7.2 0.8z" fill="#3c3c43" p-id="16307"></path></svg>