<?xml version="1.0" standalone="no"?><!DOCTYPE svg PUBLIC "-//W3C//DTD SVG 1.1//EN" "http://www.w3.org/Graphics/SVG/1.1/DTD/svg11.dtd"><svg t="1680593006660" class="icon" viewBox="0 0 1024 1024" version="1.1" xmlns="http://www.w3.org/2000/svg" p-id="8124" xmlns:xlink="http://www.w3.org/1999/xlink" width="200" height="200"><path d="M256 768c-6.5536 0-13.1072-2.5088-18.1248-7.4752l-204.8-204.8c-9.984-9.984-9.984-26.2144 0-36.1984l204.8-204.8c9.984-9.984 26.2144-9.984 36.1984 0s9.984 26.2144 0 36.1984l-186.6752 186.6752 186.6752 186.6752c9.984 9.984 9.984 26.2144 0 36.1984-5.0176 5.0176-11.5712 7.4752-18.1248 7.4752z" fill="#3c3c43" p-id="8125"></path><path d="M768 768c-6.5536 0-13.1072-2.5088-18.1248-7.4752-9.984-9.984-9.984-26.2144 0-36.1984l186.6752-186.6752-186.6752-186.6752c-9.984-9.984-9.984-26.2144 0-36.1984s26.2144-9.984 36.1984 0l204.8 204.8c9.984 9.984 9.984 26.2144 0 36.1984l-204.8 204.8c-5.0176 5.0176-11.5712 7.4752-18.1248 7.4752z" fill="#3c3c43" p-id="8126"></path><path d="M384 768c-4.6592 0-9.3184-1.28-13.568-3.8912-11.9808-7.4752-15.616-23.296-8.1408-35.2768l256-409.6c7.4752-11.9808 23.296-15.616 35.2768-8.1408s15.616 23.296 8.1408 35.2768l-256 409.6c-4.864 7.7824-13.2096 12.032-21.7088 12.032z" fill="#3c3c43" p-id="8127"></path></svg>