<svg width="300" height="300" xmlns="http://www.w3.org/2000/svg">
 <g>
  <title>Layer 1</title>
  <ellipse ry="70" rx="70" id="svg_25" cy="147.5" cx="137" stroke="#000" fill="none"/>
  <ellipse ry="42" rx="42" id="svg_13" cy="49" cx="48.5" stroke="#000" fill="none"/>
  <ellipse stroke="#000" ry="35" rx="35" id="svg_15" cy="148" cx="252.5" fill="none"/>
  <ellipse ry="15" rx="15" id="svg_17" cy="89" cx="278" stroke="#000" fill="none"/>
  <ellipse stroke="#000" ry="32" rx="32" id="svg_20" cy="260.5" cx="131" fill="none"/>
  <ellipse ry="18" rx="18" id="svg_26" cy="118" cx="45" stroke="#000" fill="none"/>
  <path stroke="#000" id="svg_29" d="m14.17988,126c-9.96402,57.47692 15.13462,113.88462 74.82012,131" opacity="NaN" fill="none"/>
  <path stroke="#000" id="svg_31" d="m103,35c59.02702,-19 116.24324,10 136,53" opacity="NaN" fill="none"/>
  <path id="svg_32" d="m166,263" opacity="NaN" stroke="#000" fill="none"/>
  <path stroke="#000" id="svg_33" d="m173,262c36.81579,-7 55.31579,-20 71,-61" opacity="NaN" fill="none"/>
  <path stroke="#000" id="svg_34" d="m93,178c0.47945,10.86931 11.0274,23.41081 35,21.32056" opacity="NaN" fill="none"/>
 </g>

</svg>